<svg xmlns="http://www.w3.org/2000/svg" viewBox="0 0 64 64">
  <defs>
    <filter id="w" x="-40%" y="-40%" width="180%" height="180%"><feGaussianBlur stdDeviation="3.2"/></filter>
    <filter id="p" x="-30%" y="-30%" width="160%" height="160%"><feGaussianBlur stdDeviation="0.7"/></filter>
  </defs>
  <ellipse cx="32" cy="40" rx="24" ry="14" fill="#e8c9a8" opacity=".5" filter="url(#w)"/>
  <ellipse cx="40" cy="18" rx="12" ry="8" fill="#d8dee4" opacity=".55" filter="url(#w)"/>
  <path d="M14 34 Q32 28 50 34 L48 44 Q32 49 16 44 Z" fill="#9c4a26" opacity=".85" filter="url(#p)"/>
  <path d="M15 36 Q32 31 49 36 L48 40 Q32 45 16 40 Z" fill="#b8603a" opacity=".8" filter="url(#p)"/>
  <path d="M20 33 L21 45 M28 31.5 L28.5 46 M36 31.5 L35.5 46 M44 33 L43 45" stroke="#732f14" stroke-width="1.8" opacity=".5" stroke-linecap="round" filter="url(#p)"/>
  <path d="M17 35 Q32 30.5 47 35" stroke="#e0a56b" stroke-width="1.6" fill="none" opacity=".7" stroke-linecap="round" filter="url(#p)"/>
  <path d="M36 22 Q33 18 36 14 Q39 11 37 7" stroke="#c9ccd4" stroke-width="2.4" fill="none" opacity=".7" stroke-linecap="round" filter="url(#w)"/>
  <path d="M43 24 Q41 20 43 17" stroke="#d4d7de" stroke-width="2" fill="none" opacity=".6" stroke-linecap="round" filter="url(#w)"/>
</svg>
