<svg xmlns="http://www.w3.org/2000/svg" viewBox="0 0 64 64">
  <defs>
    <filter id="w" x="-40%" y="-40%" width="180%" height="180%"><feGaussianBlur stdDeviation="3.2"/></filter>
    <filter id="p" x="-30%" y="-30%" width="160%" height="160%"><feGaussianBlur stdDeviation="0.7"/></filter>
  </defs>
  <ellipse cx="32" cy="36" rx="24" ry="16" fill="#ecd3b0" opacity=".5" filter="url(#w)"/>
  <ellipse cx="46" cy="20" rx="11" ry="8" fill="#dbe4d0" opacity=".5" filter="url(#w)"/>
  <path d="M17 30 Q17 18 32 18 Q47 18 47 30 Z" fill="#d9a256" opacity=".9" filter="url(#p)"/>
  <path d="M20 26 Q24 21 32 20.5 Q40 21 44 26" stroke="#e8bc7a" stroke-width="2" fill="none" opacity=".8" stroke-linecap="round" filter="url(#p)"/>
  <path d="M16 33 Q22 30 28 32.5 Q34 35 40 32.5 Q45 30.5 48 33 L47 35.5 Q32 38 17 35.5 Z" fill="#7d9b4e" opacity=".85" filter="url(#p)"/>
  <path d="M16 37 Q32 40.5 48 37 L47 41 Q32 44 17 41 Z" fill="#6e4526" opacity=".9" filter="url(#p)"/>
  <path d="M17 43 Q32 46.5 47 43 L46 46 Q40 48.5 32 48.5 Q24 48.5 18 46 Z" fill="#dca75f" opacity=".9" filter="url(#p)"/>
  <ellipse cx="26" cy="22.5" rx="1" ry=".7" fill="#f6ecd4" opacity=".9" filter="url(#p)"/>
  <ellipse cx="33" cy="21.4" rx="1" ry=".7" fill="#f6ecd4" opacity=".9" filter="url(#p)"/>
  <ellipse cx="39" cy="23" rx="1" ry=".7" fill="#f6ecd4" opacity=".85" filter="url(#p)"/>
</svg>
