<svg xmlns="http://www.w3.org/2000/svg" viewBox="0 0 64 64">
  <defs>
    <filter id="w" x="-40%" y="-40%" width="180%" height="180%"><feGaussianBlur stdDeviation="3.2"/></filter>
    <filter id="p" x="-30%" y="-30%" width="160%" height="160%"><feGaussianBlur stdDeviation="0.7"/></filter>
  </defs>
  <ellipse cx="32" cy="34" rx="24" ry="16" fill="#f0dcae" opacity=".5" filter="url(#w)"/>
  <ellipse cx="20" cy="20" rx="12" ry="9" fill="#e3d0d8" opacity=".5" filter="url(#w)"/>
  <path d="M32 12 L48 46 Q32 52 16 46 Z" fill="#f2d9a0" opacity=".9" filter="url(#p)"/>
  <path d="M32 16 L45 44 Q32 49 19 44 Z" fill="#e8b45a" opacity=".8" filter="url(#p)"/>
  <path d="M16 46 Q32 52.5 48 46 L47 48.5 Q32 55 17 48.5 Z" fill="#c99a2e" opacity=".9" filter="url(#p)"/>
  <ellipse cx="30" cy="28" rx="3" ry="2.6" fill="#c0392b" opacity=".85" filter="url(#p)"/>
  <ellipse cx="36.5" cy="36" rx="3.2" ry="2.7" fill="#b8342a" opacity=".85" filter="url(#p)"/>
  <ellipse cx="27" cy="39" rx="2.8" ry="2.4" fill="#cc4a30" opacity=".8" filter="url(#p)"/>
  <ellipse cx="33" cy="22" rx="1.6" ry="1.2" fill="#7d9b4e" opacity=".8" filter="url(#p)"/>
  <ellipse cx="24" cy="32" rx="1.5" ry="1.1" fill="#8aa65a" opacity=".75" filter="url(#p)"/>
</svg>
