<svg xmlns="http://www.w3.org/2000/svg" viewBox="0 0 64 64">
  <defs>
    <filter id="w" x="-40%" y="-40%" width="180%" height="180%"><feGaussianBlur stdDeviation="3.2"/></filter>
    <filter id="p" x="-30%" y="-30%" width="160%" height="160%"><feGaussianBlur stdDeviation="0.7"/></filter>
  </defs>
  <ellipse cx="32" cy="38" rx="24" ry="15" fill="#bcd4dc" opacity=".5" filter="url(#w)"/>
  <ellipse cx="20" cy="24" rx="12" ry="9" fill="#dde9ea" opacity=".6" filter="url(#w)"/>
  <path d="M12 40 Q14 22 32 18 Q50 22 52 40 Q42 48 32 48 Q22 48 12 40 Z" fill="#7b98a4" opacity=".8" filter="url(#p)"/>
  <path d="M16 39 Q19 25 32 22 Q45 25 48 39 Q40 45 32 45 Q24 45 16 39 Z" fill="#9db8bf" opacity=".75" filter="url(#p)"/>
  <path d="M32 20 L32 44 M22 23 L27 43 M42 23 L37 43" stroke="#5e7d8a" stroke-width="1.6" opacity=".5" stroke-linecap="round" filter="url(#p)"/>
  <ellipse cx="32" cy="36" rx="9" ry="6" fill="#e8ded2" opacity=".85" filter="url(#p)"/>
  <ellipse cx="32" cy="35" rx="4" ry="3" fill="#f5eee2" opacity=".95" filter="url(#p)"/>
  <ellipse cx="30.4" cy="33.8" rx="1.4" ry="1" fill="#ffffff" opacity=".95" filter="url(#p)"/>
  <ellipse cx="43" cy="30" rx="2" ry="1.3" fill="#cfe0e2" opacity=".8" filter="url(#p)"/>
</svg>
