<svg xmlns="http://www.w3.org/2000/svg" viewBox="0 0 64 64">
  <defs>
    <filter id="w" x="-40%" y="-40%" width="180%" height="180%"><feGaussianBlur stdDeviation="3.2"/></filter>
    <filter id="p" x="-30%" y="-30%" width="160%" height="160%"><feGaussianBlur stdDeviation="0.7"/></filter>
  </defs>
  <ellipse cx="30" cy="36" rx="24" ry="16" fill="#f2d9a0" opacity=".5" filter="url(#w)"/>
  <ellipse cx="42" cy="24" rx="14" ry="10" fill="#dfe8d2" opacity=".55" filter="url(#w)"/>
  <path d="M12 40 Q32 12 52 40 Q42 36 32 37 Q22 36 12 40 Z" fill="#e0a83c" opacity=".85" filter="url(#p)"/>
  <path d="M14 40 Q32 18 50 40 Q40 34 32 35 Q24 34 14 40 Z" fill="#c98a2b" opacity=".55" filter="url(#p)"/>
  <path d="M18 37 Q26 30 32 31 Q40 30 46 37 Q38 33 32 33.5 Q26 33 18 37 Z" fill="#7d9b4e" opacity=".9" filter="url(#p)"/>
  <ellipse cx="24" cy="34" rx="2.4" ry="1.5" fill="#c0392b" opacity=".85" filter="url(#p)"/>
  <ellipse cx="33" cy="32.6" rx="2.2" ry="1.4" fill="#d95d39" opacity=".85" filter="url(#p)"/>
  <ellipse cx="41" cy="34.4" rx="2.3" ry="1.4" fill="#b8342a" opacity=".8" filter="url(#p)"/>
  <ellipse cx="28.5" cy="31.6" rx="1.8" ry="1.1" fill="#f6e7b0" opacity=".9" filter="url(#p)"/>
  <ellipse cx="37.5" cy="31.6" rx="1.7" ry="1" fill="#f2dc9a" opacity=".85" filter="url(#p)"/>
  <path d="M13 40.5 Q32 44 51 40.5" stroke="#a8742a" stroke-width="2.2" fill="none" opacity=".55" stroke-linecap="round" filter="url(#p)"/>
</svg>
